    <svg width="" height="" viewBox="0 0 252 125" fill="none" xmlns="http://www.w3.org/2000/svg">
<path d="M56.0785 61.2126C56.0785 61.2126 115.753 86.6046 169.6 107.537C223.447 128.469 273.047 48.6323 207.532 18.6639" stroke="#FFF6E0" stroke-width="20" stroke-linecap="round"/>
<path d="M195.876 63.1287C195.876 63.1287 136.111 37.9499 82.1898 17.2101C28.2685 -3.52963 -21.0463 76.4836 44.5756 106.218" stroke="#FFF6E0" stroke-width="20" stroke-linecap="round"/>
<circle cx="55.9071" cy="61.7343" r="15" transform="rotate(-6.19881 55.9071 61.7343)" fill="#FFF6E0"/>
<circle cx="151.666" cy="100.622" r="15" transform="rotate(-6.19881 151.666 100.622)" fill="#FFF6E0"/>
<circle cx="94.7685" cy="21.3017" r="15" transform="rotate(-6.19881 94.7685 21.3017)" fill="#FFF6E0"/>
<circle cx="206.091" cy="18.2634" r="15" transform="rotate(-6.19881 206.091 18.2634)" fill="#FFF6E0"/>
<circle cx="45.8539" cy="108.091" r="15" transform="rotate(-6.19881 45.8539 108.091)" fill="#FFF6E0"/>
<circle cx="234.873" cy="79.5136" r="15" transform="rotate(-6.19881 234.873 79.5136)" fill="#FFF6E0"/>
<circle cx="16.532" cy="41.8698" r="15" transform="rotate(-6.19881 16.532 41.8698)" fill="#FFF6E0"/>
<circle cx="195.714" cy="61.6375" r="15" transform="rotate(-6.19881 195.714 61.6375)" fill="#FFF6E0"/>
<line x1="206.578" y1="18.3798" x2="196.2" y2="61.7539" stroke="#FFF6E0"/>
<line x1="45.3652" y1="107.985" x2="55.4185" y2="61.6283" stroke="#FFF6E0"/>
<line x1="195.714" y1="62.1376" x2="55.9075" y2="62.2343" stroke="#FFF6E0"/>
<line x1="206.23" y1="18.7437" x2="56.0461" y2="62.2146" stroke="#FFF6E0"/>
<line x1="195.862" y1="62.1152" x2="46.0019" y2="108.568" stroke="#FFF6E0"/>
<line x1="151.26" y1="100.913" x2="94.3622" y2="21.5931" stroke="#FFF6E0"/>
<line x1="16.7572" y1="41.4233" x2="56.1324" y2="61.2878" stroke="#FFF6E0"/>
<line x1="234.666" y1="79.9686" x2="195.506" y2="62.0924" stroke="#FFF6E0"/>
<line x1="44.9558" y1="107.575" x2="94.8007" y2="21.317" stroke="#FFF6E0"/>
<line x1="206.508" y1="18.5391" x2="152.083" y2="100.897" stroke="#FFF6E0"/>
</svg>